<svg viewBox="0 0 2073 2474.6" xmlns="http://www.w3.org/2000/svg"><path d="M1038.7 1239V3.3l1031 511.6 3.3 724h-135.3l3.3-478.6-595.3-170.5v644.8z" fill="#f58536"/><path d="M1038.7 0v1237.9h-548V277.3zM3.3 1236.8V510.5l294.9-140.8v867.1H0" fill="#9d5024"/><path d="M298.2 369.7v867.1l192.6 1.1V419.2z" fill="#f58536"/><path d="M1563.6 813.1V1240h376.3l1.1-479.7z" fill="#9d5024"/><path d="M1345.7 589.8L1941 760.3l-376.3 52.8-219-47.3z" fill="#6b3918"/><path d="M8.8 1453.5l289.4 50.6v605.2L3.3 1959.7zm478.6 78.1v671.2l548 271.8v-861.5z" fill="#9d5024"/><path d="M2064.2 1453.5v511.6l-1028.8 509.4V1613z" fill="#f58536"/><path d="M1360 1416.1v49.5l-872.6 67.1v528.2l-189.3 48.4-1.1-616.2z" fill="#f58536"/><path d="M8.8 1453.5l1116.8-60.5 233.3 22-1064 92.4zm478.6 78.1l1042-104.5 529.3 27.5L1035.4 1613z" fill="#fabe92"/></svg>