<svg xmlns="http://www.w3.org/2000/svg" xmlns:xlink="http://www.w3.org/1999/xlink" width="40" height="40"><defs><path id="a" d="M0 0h24v36H0z"/><path id="c" d="M0 0h14.094v35.677H0z"/><path id="e" d="M.281.849H21V35H.281z"/></defs><g fill="none" fill-rule="evenodd" transform="translate(8 2)"><mask id="b" fill="#fff"><use xlink:href="#a"/></mask><path fill="#C1BACE" d="M24 24.322C24 30.772 18.627 36 12 36S0 30.771 0 24.322c0-5.939 4.137-14.177 6.428-17.988C10.245-.018 13.031 0 13.031 0s-.804 3.615 2.063 9.214C17.698 14.301 24 18 24 24.322" mask="url(#b)"/><mask id="d" fill="#fff"><use xlink:href="#c"/></mask><path fill="#C1BACE" d="M12.677 20.44c.634-2.24-.931-4.8-.45-8.322.146-1.069.883-2.922 1.867-5.134C12.437 2.674 13.03 0 13.03 0s-2.786-.018-6.603 6.334C4.137 10.145 0 18.384 0 24.322c0 5.51 3.919 10.125 9.193 11.355-.03-.015-.057-.032-.086-.048-3.522-1.864-2.895-5.394-1.544-7.667 1.553-2.61 3.94-3.375 5.114-7.522" mask="url(#d)"/><path fill="#9F93C2" d="M7.577 13.454c.827 4.205 1.182 8.441 1.182 8.441s2.05-7.699 2.531-11.22c.147-1.08 1.256-2.307 2.804-3.554-.694-1.767-1.01-3.266-1.14-4.425-5.712 4.244-6.54 4.845-5.377 10.758"/><g transform="translate(3 1)"><mask id="f" fill="#fff"><use xlink:href="#e"/></mask><path fill="#ADA4BE" d="M21 23.615C21 29.902 15.627 35 9 35S.281 30.193.281 23.906c0-5.79.793-9.603 2.625-14.87C5.285 2.193 7.895.848 7.895.848s-.543 2.82 2.324 8.277C12.823 14.087 21 17 21 23.616" mask="url(#f)"/></g><path fill="#988CBE" d="M13.08 3.447l.002.01c0-.003 0-.006-.002-.01m-.157-1.345v0m.272 1.962l.006.027-.006-.027m-.23-1.467l.003.023-.003-.023zm.035.299l-.004-.028.004.028m.036.265v.004-.004zm.096.58l.006.033-.006-.033m.774 2.825l.018.047-.018-.047zm-.137-.398a.705.705 0 010 0m-.425-1.449l.008.032-.008-.032m-.447-3.454v-.018.018zm.753 4.542l.004.013c0-.004-.003-.01-.004-.013m-.11-.367l.005.021-.006-.02m-.104-.373l.012.042-.012-.042zm-.44-5.04l-.002.006.001-.006m-.026.158l-.001.01v-.01m.01-.065v.003-.003zm.01-.053v.004-.004zm4.264 13.58c.044-.384.085-.725.126-1.031-.889-1.092-1.703-2.21-2.314-3.403a22.551 22.551 0 01-1-2.23c-.985 2.213-1.721 4.065-1.868 5.135-.48 3.52 1.084 6.08.451 8.32-1.173 4.149-3.561 4.913-5.115 7.524-1.351 2.272-1.977 5.803 1.543 7.667.03.016.057.03.085.047.597.139 1.21.236 1.838.285 3.366-.41 6.245-2.536 7.029-5.801 1.525-6.346-1.235-12.424-.775-16.513M12.998.006v.002-.002zm-.099 1.057v.018-.018zm.01.8l.001.024v-.024m-.01-.215l.001.012v-.012m.012-.9v0m.01-.144l-.001.016V.604m.034-.333v0m-.022.208l-.001.009V.479"/><path fill="#C1BACE" d="M12.136 29.49c-1.723 0-3.261-.106-4.633-.31-1.056 2.61.156 6.01 2.798 6.01 2.826 0 6.43-2.377 6.768-6.129 0-.013 0-.026.002-.039-1.471.308-3.118.468-4.935.468"/><path fill="#8475B1" d="M12.677 20.44c.634-2.24-.931-4.8-.45-8.322.082-.6.35-1.45.746-2.47-2.59-5.146-2.078-7.799-2.078-7.799s-2.61 1.345-4.99 8.186c-1.831 5.268-2.624 9.08-2.624 14.871 0 5.26 1.464 9.481 5.822 10.722-3.517-1.866-2.891-5.394-1.54-7.666 1.553-2.61 3.94-3.375 5.114-7.522"/><path fill="#7C6CAC" d="M11.018 4.148c-3.953 3.029-4.458 4.14-3.44 9.306.827 4.205 1.18 8.442 1.18 8.442s2.052-7.7 2.532-11.222c.088-.646.52-1.344 1.185-2.068-.847-1.87-1.262-3.36-1.457-4.458"/><path fill="#988CBE" d="M3.281 24.906c0-2.54.152-4.699.48-6.768-.433-1.573-.64-3.364-.698-5.283C1.424 16.563 0 20.838 0 24.322c0 .412.022.82.065 1.22.853 1.018 1.978 1.85 3.417 2.484a22.559 22.559 0 01-.2-3.12"/><path fill="#7867A9" d="M23.95 25.393c.026-.294.043-.591.048-.891a8.177 8.177 0 00-.01-.317v-.001a10.575 10.575 0 00-.024-.311v-.001a7.428 7.428 0 00-.036-.304v-.002c-.276-2.023-1.334-3.688-2.706-5.192l-.007-.008a19.948 19.948 0 00-.198-.213c-.006-.007-.01-.013-.018-.02l-.19-.2-.026-.025-.188-.192-.03-.031a32.444 32.444 0 00-.188-.185l-.033-.033c-.063-.061-.125-.122-.189-.182l-.034-.033c-.064-.061-.127-.122-.192-.182l-.033-.031c-.065-.062-.13-.123-.197-.184a.664.664 0 01-.027-.025l-.209-.192-.017-.015-.226-.204c2.871 5.949-1.137 8.032-7.36 8.032-4.72 0-7.062-2.525-8.1-6.312-.327 2.068-.479 4.228-.479 6.768 0 1.09.064 2.135.201 3.12 2.18.959 5.082 1.464 8.866 1.464 5.481 0 9.43-1.443 11.601-4.098"/><path fill="#7C6CAC" d="M5.229 12.119c-.67 2.129-1.154 4.075-1.47 6.11 1.988 7.854 8.079 14.557 15.136 15.715a11.79 11.79 0 003.08-2.98C14.59 29.344 7.348 20.7 5.229 12.12"/><path fill="#7564A8" d="M5.229 12.119c-.67 2.129-1.154 4.075-1.47 6.11a23.865 23.865 0 004.383 8.884c.949-1.242 2.079-2.11 3.046-3.48-2.788-3.345-4.953-7.436-5.96-11.514"/><path fill="#6D5BA2" d="M12.349 29.49c2.244 0 4.23-.242 5.945-.71.289-1.936.226-3.836.026-5.647-1.486.925-3.765 1.317-6.46 1.317-.45 0-.876-.023-1.282-.068-1.037 1.23-2.173 2.114-3.046 3.581-.203.34-.388.71-.546 1.095 1.55.285 3.328.432 5.363.432"/><path fill="#66539E" d="M11.892 24.45h-.02c-4.716 0-7.058-2.523-8.097-6.309l-.014.084-.001.005c1.096 4.33 3.439 8.31 6.504 11.202.667.04 1.366.058 2.099.058 1.815 0 3.462-.159 4.93-.468-1.921-1.167-3.755-2.738-5.401-4.572"/></g></svg>