<svg id="Layer_1" data-name="Layer 1" xmlns="http://www.w3.org/2000/svg" viewBox="0 0 200 200"><defs><style>.cls-1{fill:#cb2026}</style></defs><path class="cls-1" d="M148.8 165.9v10.65H168a11 11 0 0011-11v-4.12a10.87 10.87 0 00-11-10.95h-9.59v-4.94h19v-10.66h-18.2a11.2 11.2 0 00-11 11.12v3.71c0 7.24 6.24 10.95 11 10.95 13.25.06-3.17 0 9.07 0v5.18m-122.61-2.53S56 162.42 56 149.12s-12.48-14.54-12.48-14.54H21v42h11.3v-10.15l9.77 10.12H58.8zm-4.35-8.6h-9v-9.59h9.06s2.54.94 2.54 4.77-2.6 4.82-2.6 4.82zm42.55-19.83H72.39c-8.18 0-10.94 7.41-10.94 10.94v30.73h11.47v-7.36H83.7v7.36h11.12v-30.73c0-8.94-8.12-10.94-10.95-10.94zm-.17 22.42H72.86v-10.18s0-2.3 3.6-2.3h3.94c3.18 0 3.24 2.3 3.24 2.3v10.18zM100.06 134.88h11.95v41.67h-11.95zM128.78 165.78v-30.9h-11.89v41.67h27.96v-10.77h-16.07zM25.88 120.41h55S70.4 72.42 105.22 53c7.6-3.7 31.77-17.49 71.33 11.77 1.26-1.05 2.44-1.88 2.44-1.88s-36.22-36.16-76.55-32.12C82.17 32.58 57.23 51 42.6 75.41s-16.72 45-16.72 45z"/><path class="cls-1" d="M25.88 120.41h55S70.4 72.42 105.22 53c7.6-3.7 31.77-17.49 71.33 11.77 1.26-1.05 2.44-1.88 2.44-1.88s-36.22-36.16-76.55-32.12C82.17 32.58 57.23 51 42.6 75.41s-16.72 45-16.72 45z"/><path class="cls-1" d="M25.88 120.41h55S70.4 72.42 105.22 53c7.6-3.7 31.77-17.49 71.33 11.77 1.26-1.05 2.44-1.88 2.44-1.88s-36.22-36.16-76.55-32.12C82.1 32.58 57.16 51 42.53 75.41s-16.65 45-16.65 45zm114.66-85.74l.28-4.67a33.71 33.71 0 00-6.76-2.44l-.28 4.6c2.3.76 4.53 1.6 6.76 2.51z"/><path class="cls-1" d="M133.92 49.43l-.28 4.39a38.71 38.71 0 016.9.84l.28-4.32a49.16 49.16 0 00-6.9-.91zM108.15 27.7h.7l-1.4-4.25a55.08 55.08 0 00-6.68.42l1.32 4.13a58.52 58.52 0 016.06-.3zm3.34 25.63l1.61 4.81a43.87 43.87 0 016.06-2.44l-1.54-4.6a52 52 0 00-6.13 2.23zM79.87 35l-3.14-4.8c-1.74.9-3.55 1.88-5.43 3l3.21 4.88c1.81-1.08 3.55-2.16 5.36-3.08zm14.28 31.36l3.34 5a39.29 39.29 0 014.11-4.94l-3.13-4.74a39.13 39.13 0 00-4.32 4.68zm-10.1 22.43l5.64 4.46a56.45 56.45 0 011.46-8.15l-5-4a65.34 65.34 0 00-2.1 7.69zM53.54 55.7l-4.95-4.32c-1.81 1.74-3.55 3.49-5.15 5.23l5.36 4.59a70.2 70.2 0 014.74-5.5zm-21 31.14l-8-2.93c-1.32 3-2.79 6.48-3.48 8.36l8 2.93c.86-2.37 2.33-5.78 3.44-8.36zM83 106.48a70.53 70.53 0 00.84 8.78l8.36 3a88.69 88.69 0 01-1.67-9z"/></svg>